<svg xmlns="http://www.w3.org/2000/svg" viewBox="0 0 1200 430" width="1200" height="430" role="img">
  <defs>
    <!-- Background Definition -->
    
    <radialGradient id="bg-ambient" cx="50%" cy="30%" r="70%">
      <stop offset="0%" stop-color="#FAF9F6" />
      <stop offset="60%" stop-color="#FFFFFF" />
      <stop offset="100%" stop-color="#FFFFFF" />
    </radialGradient>

    <!-- Crystalline Space Glass Gradient Options -->
    
    <linearGradient id="c-light-1" x1="0" y1="0" x2="1" y2="1">
      <stop offset="0%" stop-color="#0F172A" />
      <stop offset="50%" stop-color="#1E1B4B" />
      <stop offset="100%" stop-color="#312E81" />
    </linearGradient>
    <linearGradient id="c-light-2" x1="1" y1="0" x2="0" y2="1">
      <stop offset="0%" stop-color="#020617" />
      <stop offset="60%" stop-color="#1E293B" />
      <stop offset="100%" stop-color="#0F172A" />
    </linearGradient>
    <linearGradient id="c-light-3" x1="0" y1="1" x2="1" y2="0">
      <stop offset="0%" stop-color="#1E1B4B" />
      <stop offset="50%" stop-color="#2E1065" />
      <stop offset="100%" stop-color="#4C1D95" />
    </linearGradient>
    <linearGradient id="c-light-4" x1="0.5" y1="0" x2="0.5" y2="1">
      <stop offset="0%" stop-color="#020617" />
      <stop offset="50%" stop-color="#0F172A" />
      <stop offset="100%" stop-color="#1E1B4B" />
    </linearGradient>

    <!-- Glowing Highlights for Crystalline Edges -->
    <linearGradient id="edge-highlight" x1="0" y1="0" x2="1" y2="0">
      <stop offset="0%" stop-color="#60A5FA" stop-opacity="0.8" />
      <stop offset="50%" stop-color="#C084FC" stop-opacity="0.8" />
      <stop offset="100%" stop-color="#22D3EE" stop-opacity="0.8" />
    </linearGradient>

    <filter id="f-pratap-shadow" x="-20%" y="-20%" width="140%" height="140%">
      <feDropShadow dx="0" dy="4" stdDeviation="5" flood-color="#0F172A" flood-opacity="0.12" />
    </filter>

    <!-- Ambient glows -->
    <radialGradient id="aher-glow" cx="50%" cy="50%" r="50%">
      <stop offset="0%" stop-color="#3B82F6" stop-opacity="0.15" />
      <stop offset="100%" stop-color="#818CF8" stop-opacity="0" />
    </radialGradient>

    <!-- Laser flare gradients -->
    <radialGradient id="flare-cyan" cx="50%" cy="50%" r="50%">
      <stop offset="0%" stop-color="#22D3EE" stop-opacity="0.9" />
      <stop offset="20%" stop-color="#22D3EE" stop-opacity="0.6" />
      <stop offset="100%" stop-color="#22D3EE" stop-opacity="0" />
    </radialGradient>
    <radialGradient id="flare-purple" cx="50%" cy="50%" r="50%">
      <stop offset="0%" stop-color="#C084FC" stop-opacity="0.9" />
      <stop offset="20%" stop-color="#C084FC" stop-opacity="0.6" />
      <stop offset="100%" stop-color="#C084FC" stop-opacity="0" />
    </radialGradient>

    <!-- AHER text gradient: Blue → Violet -->
    <linearGradient id="text-aher-grad" x1="0" y1="0" x2="1" y2="0">
      <stop offset="0%" stop-color="#4F46E5">
        <animate attributeName="stop-color" values="#4F46E5;#3B82F6;#4F46E5" dur="7s" repeatCount="indefinite" />
      </stop>
      <stop offset="50%" stop-color="#3B82F6">
        <animate attributeName="stop-color" values="#3B82F6;#8B5CF6;#3B82F6" dur="7s" repeatCount="indefinite" />
      </stop>
      <stop offset="100%" stop-color="#06B6D4">
        <animate attributeName="stop-color" values="#06B6D4;#00F2FE;#06B6D4" dur="7s" repeatCount="indefinite" />
      </stop>
    </linearGradient>

    <!-- Horizontal divider neon lines -->
    <linearGradient id="line-grad-left" x1="0" y1="0" x2="1" y2="0">
      <stop offset="0%" stop-color="#C084FC" stop-opacity="0" />
      <stop offset="70%" stop-color="#C084FC" stop-opacity="0.4" />
      <stop offset="100%" stop-color="#C084FC" stop-opacity="1" />
    </linearGradient>
    <linearGradient id="line-grad-right" x1="0" y1="0" x2="1" y2="0">
      <stop offset="0%" stop-color="#22D3EE" stop-opacity="1" />
      <stop offset="30%" stop-color="#22D3EE" stop-opacity="0.4" />
      <stop offset="100%" stop-color="#22D3EE" stop-opacity="0" />
    </linearGradient>

    <!-- Faint Volumetric light beam -->
    <linearGradient id="light-beam" x1="0" y1="0" x2="1" y2="1">
      <stop offset="0%" stop-color="#3B82F6" stop-opacity="0.04" />
      <stop offset="50%" stop-color="#8B5CF6" stop-opacity="0.01" />
      <stop offset="100%" stop-color="#FFFFFF" stop-opacity="0" />
    </linearGradient>

    <!-- Card Shadow -->
    <filter id="f-card-shadow" x="-20%" y="-20%" width="140%" height="140%">
      <feDropShadow dx="0" dy="4" stdDeviation="6" flood-color="#000000" flood-opacity="0.04" />
    </filter>

    <!-- Soft Bloom for glow -->
    <filter id="f-text-bloom" x="-20%" y="-20%" width="140%" height="140%">
      <feGaussianBlur stdDeviation="4" result="blur" />
      <feComponentTransfer in="blur" result="glow">
        <feFuncA type="linear" slope="0.45" />
      </feComponentTransfer>
      <feMerge>
        <feMergeNode in="glow" />
        <feMergeNode in="SourceGraphic" />
      </feMerge>
    </filter>

    <filter id="f-atmos-fog" x="-10%" y="-10%" width="120%" height="120%">
      <feGaussianBlur stdDeviation="25" />
    </filter>

    <!-- Text Clipping Path for Crystalline Space Glass inside letters -->
    <clipPath id="text-clip">
      <!-- Custom Ethnocentric display font-family -->
      <text x="600" y="170" font-size="135" font-weight="900" text-anchor="middle" letter-spacing="-1.5">PRATAP</text>
    </clipPath>

    <!-- Subtle Shimmer Sweep Gradient for PRATAP -->
    <linearGradient id="shimmer-sweep" x1="-1" y1="0" x2="0" y2="0">
      <stop offset="0%" stop-color="#FFFFFF" stop-opacity="0" />
      <stop offset="35%" stop-color="#FFFFFF" stop-opacity="0" />
      <stop offset="50%" stop-color="#FFFFFF" stop-opacity="0.3" />
      <stop offset="65%" stop-color="#FFFFFF" stop-opacity="0" />
      <stop offset="100%" stop-color="#FFFFFF" stop-opacity="0" />
      <animate attributeName="x1" values="-1; 2.5; 2.5" keyTimes="0; 0.22; 1" dur="10s" repeatCount="indefinite" />
      <animate attributeName="x2" values="0; 3.5; 3.5" keyTimes="0; 0.22; 1" dur="10s" repeatCount="indefinite" />
    </linearGradient>
  </defs>

  <!-- ── 1. BACKGROUND ── -->
  <rect width="1200" height="430" fill="url(#bg-ambient)" />

  <!-- ── 2. FAINT PERSPECTIVE COORDINATE CIRCLES (Apple style) ── -->
  <g fill="none" stroke="#E2E8F0" stroke-width="1.2">
    <circle cx="600" cy="180" r="230" stroke-dasharray="4, 12" opacity="0.3" />
    <circle cx="600" cy="180" r="350" opacity="0.15" />
    <circle cx="600" cy="180" r="480" opacity="0.08" />
  </g>

  <!-- ── 3. ATMOSPHERE ── -->
  <g id="atmosphere" opacity="0.6">
    <polygon points="150,-100 500,-100 350,550 0,550" fill="url(#light-beam)">
      <animateTransform attributeName="transform" type="translate" values="-20,0; 20,0; -20,0" dur="12s" repeatCount="indefinite" />
    </polygon>
    
    <circle cx="600" cy="210" r="220" fill="url(#aher-glow)" filter="url(#f-atmos-fog)" />
    
    <!-- Micro-particles -->
    <g fill="#475569" opacity="0.2">
      <circle cx="280" cy="180" r="1">
        <animate attributeName="opacity" values="0.1;0.6;0.1" dur="7s" repeatCount="indefinite" />
        <animateTransform attributeName="transform" type="translate" values="0,0; 8,-12; 0,0" dur="12s" repeatCount="indefinite" />
      </circle>
      <circle cx="880" cy="140" r="1.2">
        <animate attributeName="opacity" values="0.2;0.7;0.2" dur="6s" repeatCount="indefinite" />
        <animateTransform attributeName="transform" type="translate" values="0,0; -12,-8; 0,0" dur="10s" repeatCount="indefinite" />
      </circle>
    </g>
  </g>

  <!-- ── 4. HERO TYPOGRAPHY ── -->
  <g font-family="'Ethnocentric', 'Neue Montreal', 'General Sans', 'Satoshi', 'Clash Display', 'Geist', 'Space Grotesk', -apple-system, sans-serif">
    
    <!-- PRATAP Crystalline Logotype -->
    <g filter="url(#f-pratap-shadow)">
      <!-- Base text structure -->
      <text x="600" y="170" font-size="135" font-weight="900" text-anchor="middle" letter-spacing="-1.5" fill="#111827" />
      
      <!-- Crystalline Poly-Mesh Layer (Clipped to PRATAP text) -->
      <g clip-path="url(#text-clip)">
            <polygon points="150,65 250,55 140,125" fill="url(#c-light-1)" opacity="0.95" />
    <polygon points="250,55 230,120 140,125" fill="url(#c-light-2)" opacity="0.95" />
    <polygon points="250,55 350,65 230,120" fill="url(#c-light-2)" opacity="0.95" />
    <polygon points="350,65 320,130 230,120" fill="url(#c-light-3)" opacity="0.95" />
    <polygon points="350,65 450,60 320,130" fill="url(#c-light-3)" opacity="0.95" />
    <polygon points="450,60 420,115 320,130" fill="url(#c-light-4)" opacity="0.95" />
    <polygon points="450,60 550,65 420,115" fill="url(#c-light-4)" opacity="0.95" />
    <polygon points="550,65 520,135 420,115" fill="url(#c-light-1)" opacity="0.95" />
    <polygon points="550,65 650,55 520,135" fill="url(#c-light-1)" opacity="0.95" />
    <polygon points="650,55 620,120 520,135" fill="url(#c-light-2)" opacity="0.95" />
    <polygon points="650,55 750,70 620,120" fill="url(#c-light-2)" opacity="0.95" />
    <polygon points="750,70 710,125 620,120" fill="url(#c-light-3)" opacity="0.95" />
    <polygon points="750,70 850,60 710,125" fill="url(#c-light-3)" opacity="0.95" />
    <polygon points="850,60 820,130 710,125" fill="url(#c-light-4)" opacity="0.95" />
    <polygon points="850,60 950,65 820,130" fill="url(#c-light-4)" opacity="0.95" />
    <polygon points="950,65 920,115 820,130" fill="url(#c-light-1)" opacity="0.95" />
    <polygon points="950,65 1050,65 920,115" fill="url(#c-light-1)" opacity="0.95" />
    <polygon points="1050,65 1060,125 920,115" fill="url(#c-light-2)" opacity="0.95" />
    <polygon points="140,125 230,120 150,190" fill="url(#c-light-3)" opacity="0.95" />
    <polygon points="230,120 250,185 150,190" fill="url(#c-light-4)" opacity="0.95" />
    <polygon points="230,120 320,130 250,185" fill="url(#c-light-4)" opacity="0.95" />
    <polygon points="320,130 350,195 250,185" fill="url(#c-light-1)" opacity="0.95" />
    <polygon points="320,130 420,115 350,195" fill="url(#c-light-1)" opacity="0.95" />
    <polygon points="420,115 450,188 350,195" fill="url(#c-light-2)" opacity="0.95" />
    <polygon points="420,115 520,135 450,188" fill="url(#c-light-2)" opacity="0.95" />
    <polygon points="520,135 550,185 450,188" fill="url(#c-light-3)" opacity="0.95" />
    <polygon points="520,135 620,120 550,185" fill="url(#c-light-3)" opacity="0.95" />
    <polygon points="620,120 650,200 550,185" fill="url(#c-light-4)" opacity="0.95" />
    <polygon points="620,120 710,125 650,200" fill="url(#c-light-4)" opacity="0.95" />
    <polygon points="710,125 750,188 650,200" fill="url(#c-light-1)" opacity="0.95" />
    <polygon points="710,125 820,130 750,188" fill="url(#c-light-1)" opacity="0.95" />
    <polygon points="820,130 850,195 750,188" fill="url(#c-light-2)" opacity="0.95" />
    <polygon points="820,130 920,115 850,195" fill="url(#c-light-2)" opacity="0.95" />
    <polygon points="920,115 950,185 850,195" fill="url(#c-light-3)" opacity="0.95" />
    <polygon points="920,115 1060,125 950,185" fill="url(#c-light-3)" opacity="0.95" />
    <polygon points="1060,125 1050,190 950,185" fill="url(#c-light-4)" opacity="0.95" />
        
        <!-- Subtle moving reflection sweep inside crystals -->
        <rect x="100" y="40" width="1000" height="180" fill="url(#shimmer-sweep)" pointer-events="none" />
      </g>
      
      <!-- Edge highlights overlay for crystalline look -->
      <text x="600" y="170" font-size="135" font-weight="900" text-anchor="middle" letter-spacing="-1.5" fill="none" stroke="url(#edge-highlight)" stroke-width="0.8" opacity="0.6" />
    </g>

    <!-- Laser flares on the top edges of PRATAP -->
    <circle cx="230" cy="70" r="12" fill="url(#flare-cyan)" />
    <circle cx="970" cy="70" r="12" fill="url(#flare-purple)" />
    
    <!-- AHER & NEON LINES -->
    <g filter="url(#f-text-bloom)">
      <!-- Dynamic horizontal dividers split on both sides of AHER -->
      <line x1="310" y1="226" x2="465" y2="226" stroke="url(#line-grad-left)" stroke-width="1.8" />
      <line x1="735" y1="226" x2="890" y2="226" stroke="url(#line-grad-right)" stroke-width="1.8" />
      
      <!-- Flares at the tips of the dividers -->
      <circle cx="465" cy="226" r="8" fill="url(#flare-purple)" />
      <circle cx="735" cy="226" r="8" fill="url(#flare-cyan)" />
      
      <!-- AHER typography (high spacing, medium size) -->
      <text x="600" y="235" font-size="53" font-weight="700" text-anchor="middle" fill="url(#text-aher-grad)" letter-spacing="14">AHER</text>
    </g>
  </g>

  <!-- ── 5. ROLE SECTION ── -->
  <g text-anchor="middle" font-family="'Neue Montreal', 'General Sans', 'Satoshi', 'Geist', -apple-system, sans-serif" font-size="11.5" font-weight="600" fill="#475569" letter-spacing="2">
    <text x="600" y="290">
      ETHICAL HACKING
      <tspan fill="#64748B" font-weight="400" opacity="0.4">  •  </tspan>
      AI SECURITY
      <tspan fill="#64748B" font-weight="400" opacity="0.4">  •  </tspan>
      PROBLEM SOLVING
      <tspan fill="#64748B" font-weight="400" opacity="0.4">  •  </tspan>
      INNOVATION
      <tspan fill="#64748B" font-weight="400" opacity="0.4">  •  </tspan>
      FULL STACK DEVELOPMENT
    </text>
  </g>

  <line x1="500" y1="318" x2="700" y2="318" stroke="#E2E8F0" stroke-width="1" opacity="0.8" />

  <!-- ── 6. TECH STACK LABEL ── -->
  <text x="600" y="340" text-anchor="middle" font-family="'Neue Montreal', 'General Sans', 'Satoshi', 'Geist', -apple-system, sans-serif" font-size="10.5" font-weight="700" fill="#94A3B8" letter-spacing="3">TECH STACK</text>

  <!-- ── 7. TECH STACK HORIZONTAL CARDS ── -->
  <g id="tech-cards">
    <!-- Python -->
    <g transform="translate(192, 360)">
      <rect width="56" height="56" rx="14" fill="#FFFFFF" stroke="#E2E8F0" stroke-width="1.2" filter="url(#f-card-shadow)" />
      <g transform="translate(13, 13) scale(1.25)">
        <path fill="#3776AB" d="M12 2c-5.5 0-5 2.5-5 2.5v1.8h5.2v.7H6.5c-2.3 0-4.5 1.7-4.5 4.5v3.2c0 2.3 1.8 4.3 4.1 4.5h1.5v-2.2c0-2.5 2-4.5 4.5-4.5h5.2V7c0-2.8-2.5-5-5.3-5zm-1.8 1.8a.7.7 0 1 1 0 1.4.7.7 0 0 1 0-1.4z"/><path fill="#FFD343" d="M12 22c5.5 0 5-2.5 5-2.5v-1.8h-5.2v-.7h5.7c2.3 0 4.5-1.7 4.5-4.5v-3.2c0-2.3-1.8-4.3-4.1-4.5h-1.5v2.2c0 2.5-2 4.5-4.5 4.5H6.2V17c0 2.8 2.5 5 5.3 5zm1.8-1.8a.7.7 0 1 1 0-1.4.7.7 0 0 1 0 1.4z"/>
      </g>
    </g>

    <!-- React -->
    <g transform="translate(268, 360)">
      <rect width="56" height="56" rx="14" fill="#FFFFFF" stroke="#E2E8F0" stroke-width="1.2" filter="url(#f-card-shadow)" />
      <g transform="translate(13, 13) scale(1.25)">
        <ellipse cx="12" cy="12" rx="11" ry="4.2" fill="none" stroke="#61DAFB" stroke-width="1.2" transform="rotate(30,12,12)"/><ellipse cx="12" cy="12" rx="11" ry="4.2" fill="none" stroke="#61DAFB" stroke-width="1.2" transform="rotate(90,12,12)"/><ellipse cx="12" cy="12" rx="11" ry="4.2" fill="none" stroke="#61DAFB" stroke-width="1.2" transform="rotate(150,12,12)"/><circle cx="12" cy="12" r="1.8" fill="#61DAFB"/>
      </g>
    </g>

    <!-- TypeScript -->
    <g transform="translate(344, 360)">
      <rect width="56" height="56" rx="14" fill="#FFFFFF" stroke="#E2E8F0" stroke-width="1.2" filter="url(#f-card-shadow)" />
      <g transform="translate(13, 13) scale(1.25)">
        <path fill="#3178C6" d="M2 2h20v20H2z"/><path fill="#FFF" d="M12.5 17.8c0 1.5-.8 2.3-2.3 2.3-1.3 0-2.1-.6-2.4-1.5l1.2-.7c.2.5.5.8 1.1.8.5 0 .8-.3.8-.8v-6.2h1.6v6.1zm6.7-5.5h-4.8v1.3h1.6v4.8h1.6v-4.8h1.6v-1.3z"/>
      </g>
    </g>

    <!-- Node.js -->
    <g transform="translate(420, 360)">
      <rect width="56" height="56" rx="14" fill="#FFFFFF" stroke="#E2E8F0" stroke-width="1.2" filter="url(#f-card-shadow)" />
      <g transform="translate(13, 13) scale(1.25)">
        <path fill="#5FA04E" d="M12 2L4 6.5v9L12 20l8-4.5v-9L12 2zm6 12.3l-6 3.4-6-3.4V7.7l6-3.4 6 3.4v6.6zM11 7h2v6.5h-2V7z"/>
      </g>
    </g>

    <!-- Docker -->
    <g transform="translate(496, 360)">
      <rect width="56" height="56" rx="14" fill="#FFFFFF" stroke="#E2E8F0" stroke-width="1.2" filter="url(#f-card-shadow)" />
      <g transform="translate(13, 13) scale(1.25)">
        <path fill="#2496ED" d="M13.9 8.2h-2.1V6.1h2.1v2.1zm-2.8 0H9V6.1h2.1v2.1zm-2.8 0H6.2V6.1H8.3v2.1zm8.3 0h-2.1V6.1h2.1v2.1zm5.5 1.5c-.3-1.3-1.2-2.1-2.2-2.3-.2 0-.4-.1-.6-.1-.1-.3-.4-.5-.7-.7-.3-.2-.7-.3-1.1-.3v2.8h-1.4V6.5h-2.1v2.8H9.7V6.5H7.6v2.8H5.5V7.9c-2 .1-3 1.2-3 2.9v4.2c0 2.6 2.1 4.7 4.7 4.7h9c2.4 0 4.1-1.8 4.4-4 .3-.3.4-.7.4-1.2v-4.8z"/>
      </g>
    </g>

    <!-- Linux -->
    <g transform="translate(572, 360)">
      <rect width="56" height="56" rx="14" fill="#FFFFFF" stroke="#E2E8F0" stroke-width="1.2" filter="url(#f-card-shadow)" />
      <g transform="translate(13, 13) scale(1.25)">
        <path fill="#111827" d="M12 2C9 2 6 4 6 8.5c0 3.2 1.8 6.5 4.5 7.5-.5.4-1 1-1 1.8 0 1 .8 1.7 1.8 1.7h1.4c1 0 1.8-.8 1.8-1.7 0-.8-.5-1.4-1-1.8 2.7-1 4.5-4.3 4.5-7.5C18 4 15 2 12 2zm-2.5 5c.6 0 1 .4 1 1s-.4 1-1 1-1-.4-1-1 .4-1 1-1zm5 0c.6 0 1 .4 1 1s-.4 1-1 1-1-.4-1-1 .4-1 1-1zm-2.5 6.5c-1.5 0-2.5-1-2.5-2.5h5c0 1.5-1 2.5-2.5 2.5z"/>
      </g>
    </g>

    <!-- Git -->
    <g transform="translate(648, 360)">
      <rect width="56" height="56" rx="14" fill="#FFFFFF" stroke="#E2E8F0" stroke-width="1.2" filter="url(#f-card-shadow)" />
      <g transform="translate(13, 13) scale(1.25)">
        <path fill="#F05032" d="M23.3 10.9L13.1.7C12.7.3 12 .3 11.6.7L8.9 3.4l3.2 3.2c.4-.1.8 0 1.1.3.4.4.4 1.1 0 1.5s-1.1.4-1.5 0c-.3-.3-.4-.7-.3-1.1L8.2 4.1l-2.6 2.6c-.4.4-.4 1.1 0 1.5l10.2 10.2c.4.4 1.1.4 1.5 0l6-6c.4-.4.4-1.1 0-1.5z M6.7 9.8c-.4-.4-1.1-.4-1.5 0s-.4 1.1 0 1.5c.3.3.7.4 1.1.3l3.2 3.2c-.1.4 0 .8.3 1.1.4.4 1.1.4 1.5 0s.4-1.1 0-1.5c-.3-.3-.7-.4-1.1-.3L6.7 9.8z"/>
      </g>
    </g>

    <!-- PostgreSQL -->
    <g transform="translate(724, 360)">
      <rect width="56" height="56" rx="14" fill="#FFFFFF" stroke="#E2E8F0" stroke-width="1.2" filter="url(#f-card-shadow)" />
      <g transform="translate(13, 13) scale(1.25)">
        <path fill="#336791" d="M12 2C6.5 2 2 6.5 2 12c0 1.9.5 3.7 1.5 5.2.2.4.6.6 1.1.4.4-.2.6-.7.4-1.1C4.3 15.3 4 13.7 4 12c0-4.4 3.6-8 8-8s8 3.6 8 8c0 2.2-.9 4.3-2.5 5.8l-1.4-1.4c.3-.3.5-.7.5-1.2v-2.1c0-1.7-1.3-3-3-3H9c-1.7 0-3 1.3-3 3v2.1c0 .5.2.9.5 1.2l-1.4 1.4c-.4.4-.4 1.1 0 1.5s1.1.4 1.5 0l1.4-1.4c.3.2.7.3 1.1.3h4.8c.4 0 .8-.1 1.1-.3l1.4 1.4c.4.4 1.1.4 1.5 0s.4-1.1 0-1.5L18.5 17c1.6-1.5 2.5-3.6 2.5-6 0-5.5-4.5-10-10-10z M9 11h3c.6 0 1 .4 1 1v1.5h-5V12c0-.6.4-1 1-1z"/>
      </g>
    </g>

    <!-- Tailwind -->
    <g transform="translate(800, 360)">
      <rect width="56" height="56" rx="14" fill="#FFFFFF" stroke="#E2E8F0" stroke-width="1.2" filter="url(#f-card-shadow)" />
      <g transform="translate(13, 13) scale(1.25)">
        <path fill="#38BDF8" d="M12 6.018C12 3.799 13.8 2 16.02 2c1.24 0 2.37.56 3.12 1.48L12.58 11.4c-.66.82-1.63 1.3-2.66 1.3-1.12 0-2.12-.55-2.73-1.4L12 6.018zm-6.02 6C5.98 9.799 7.78 8 10.02 8c1.24 0 2.37.56 3.12 1.48L6.58 17.4c-.66.82-1.63 1.3-2.66 1.3-1.12 0-2.12-.55-2.73-1.4L5.98 12.018z"/>
      </g>
    </g>

    <!-- Figma -->
    <g transform="translate(876, 360)">
      <rect width="56" height="56" rx="14" fill="#FFFFFF" stroke="#E2E8F0" stroke-width="1.2" filter="url(#f-card-shadow)" />
      <g transform="translate(13, 13) scale(1.25)">
        <path fill="#F24E1E" d="M12 2a4 4 0 0 0-4 4 4 4 0 0 0 4 4h4V2h-4z"/><path fill="#A259FF" d="M8 12a4 4 0 0 0 4-4H8v4z"/><path fill="#1ABC9C" d="M12 12a4 4 0 0 0-4 4 4 4 0 0 0 4 4v-8z"/><path fill="#19B5FE" d="M16 12a4 4 0 0 0-4-4v8a4 4 0 0 0 4-4z"/><path fill="#FF7262" d="M8 6a4 4 0 0 0 4 4v-4H8z"/>
      </g>
    </g>

    <!-- VS Code -->
    <g transform="translate(952, 360)">
      <rect width="56" height="56" rx="14" fill="#FFFFFF" stroke="#E2E8F0" stroke-width="1.2" filter="url(#f-card-shadow)" />
      <g transform="translate(13, 13) scale(1.25)">
        <path fill="#007ACC" d="M23.9 6.5L18.4 1c-.3-.3-.8-.3-1.1 0l-8.4 8.4L3.4 4.7c-.3-.3-.8-.3-1.1 0L.1 6.8c-.2.2-.2.6 0 .8l5.2 4.4L.1 16.4c-.2.2-.2.6 0 .8l2.2 2.1c.3.3.8.3 1.1 0l5.5-4.7 8.4 8.4c.3.3.8.3 1.1 0l5.5-5.5c.3-.3.3-.8 0-1.1L18.7 12l5.2-4.4c.2-.2.2-.6 0-.8z M17.5 15.6L12 12l5.5-3.6v7.2z"/>
      </g>
    </g>
  </g>
</svg>
